<svg width="270" xmlns="http://www.w3.org/2000/svg" height="270" id="screenshot-3266ba50-8fe3-802f-8008-34b19ac163e4" viewBox="0 0 270 270" xmlns:xlink="http://www.w3.org/1999/xlink" fill="none" version="1.1"><g id="shape-3266ba50-8fe3-802f-8008-34b19ac163e4"><defs><clipPath id="frame-clip-3266ba50-8fe3-802f-8008-34b19ac163e4-render-1" class="frame-clip frame-clip-def"><rect rx="0" ry="0" x="0" y="0" width="270" height="270" transform="matrix(1.000000, 0.000000, 0.000000, 1.000000, 0.000000, 0.000000)"/></clipPath></defs><g class="frame-container-wrapper"><g class="frame-container-blur"><g class="frame-container-shadows"><g clip-path="url(#frame-clip-3266ba50-8fe3-802f-8008-34b19ac163e4-render-1)" fill="none"><g class="fills" id="fills-3266ba50-8fe3-802f-8008-34b19ac163e4"><rect width="270" height="270" class="frame-background" x="0" transform="matrix(1.000000, 0.000000, 0.000000, 1.000000, 0.000000, 0.000000)" style="fill: rgb(255, 255, 255); fill-opacity: 0;" ry="0" rx="0" y="0"/></g><g class="frame-children"><g id="shape-3266ba50-8fe3-802f-8008-34b19ac163e5" style="display: none;"><g class="fills" id="fills-3266ba50-8fe3-802f-8008-34b19ac163e5"><path d="M242.47705078125,155.484130859375C242.414794921875,155.04495239257812,242.160400390625,154.6561279296875,241.7830810546875,154.423095703125C241.4056396484375,154.18994140625,240.9442138671875,154.13665771484375,240.5234375,154.27752685546875C225.1798095703125,159.36727905273438,212.2113037109375,169.86459350585938,204.0369873046875,183.81149291992188C203.7783203125,184.32797241210938,203.840576171875,184.94741821289062,204.1968994140625,185.40219116210938C204.5533447265625,185.85687255859375,205.139892578125,186.06527709960938,205.703369140625,185.93743896484375L216.0458984375,183.40924072265625C216.7000732421875,183.25631713867188,217.375732421875,183.55889892578125,217.697509765625,184.14859008789062C218.0191650390625,184.73831176757812,217.9075927734375,185.47021484375,217.425048828125,185.93743896484375L213.74755859375,189.557373046875C192.028076171875,209.09341430664062,187.431396484375,212.54098510742188,167.26318359375,212.54098510742188C159.08837890625,212.60061645507812,151.640869140625,207.8531494140625,148.2442626953125,200.41714477539062C146.2735595703125,195.46731567382812,145.31610107421875,190.1722412109375,145.4288330078125,184.845703125C145.1414794921875,171.8599853515625,144.854248046875,158.87420654296875,144.854248046875,145.9459228515625L143.992431640625,84.7520751953125L174.100830078125,84.7520751953125C176.9871826171875,89.39239501953125,182.5999755859375,91.55691528320312,187.854736328125,90.05609130859375C193.1092529296875,88.55517578125,196.7320556640625,83.75265502929688,196.7320556640625,78.28793334960938C196.7320556640625,72.82321166992188,193.1092529296875,68.02069091796875,187.854736328125,66.519775390625C182.5999755859375,65.01895141601562,176.9871826171875,67.1834716796875,174.100830078125,71.82379150390625L143.93487548828125,71.82379150390625C143.93487548828125,66.077880859375,143.93487548828125,60.332000732421875,143.93487548828125,54.586090087890625C156.936279296875,50.348114013671875,164.9273681640625,37.28700256347656,162.78173828125,23.781723022460938C160.63616943359375,10.276443481445312,148.9906005859375,0.3350067138671875,135.3160400390625,0.3350067138671875C121.6414794921875,0.3350067138671875,109.995849609375,10.276443481445312,107.8502197265625,23.781723022460938C105.70465087890625,37.28700256347656,113.69580078125,50.348114013671875,126.6971435546875,54.586090087890625C126.6971435546875,60.332000732421875,126.6971435546875,66.077880859375,126.6971435546875,71.82379150390625L95.7841796875,71.82379150390625C92.89788818359375,67.1834716796875,87.28509521484375,65.01895141601562,82.030517578125,66.519775390625C76.77593994140625,68.02069091796875,73.15301513671875,72.82321166992188,73.15301513671875,78.28793334960938C73.15301513671875,83.75265502929688,76.77593994140625,88.55517578125,82.030517578125,90.05609130859375C87.28509521484375,91.55691528320312,92.89788818359375,89.39239501953125,95.7841796875,84.7520751953125L125.8353271484375,84.7520751953125L124.97344970703125,145.9459228515625C124.97344970703125,158.93170166015625,124.68603515625,171.8599853515625,124.4561767578125,184.845703125C124.549072265625,190.176025390625,123.572265625,195.4708251953125,121.583251953125,200.41714477539062C118.2183837890625,207.8541259765625,110.784423828125,212.60736083984375,102.621826171875,212.54098510742188C82.39630126953125,212.54098510742188,77.7994384765625,209.09341430664062,56.0799560546875,189.557373046875L52.51751708984375,186.10980224609375C52.0347900390625,185.642578125,51.92327880859375,184.91067504882812,52.24505615234375,184.32095336914062C52.566650390625,183.73126220703125,53.242431640625,183.42868041992188,53.896484375,183.58160400390625L64.2392578125,186.10980224609375C64.8026123046875,186.23764038085938,65.38916015625,186.02923583984375,65.74566650390625,185.57455444335938C66.10198974609375,185.11978149414062,66.16424560546875,184.50033569335938,65.90557861328125,183.98385620117188C57.68408203125,170.03363037109375,44.64605712890625,159.57052612304688,29.2467041015625,154.56475830078125C28.8328857421875,154.42239379882812,28.376953125,154.47622680664062,28.0076904296875,154.71109008789062C27.6385498046875,154.94598388671875,27.396728515625,155.3363037109375,27.3504638671875,155.77145385742188C26.43109130859375,162.55157470703125,23.90289306640625,187.71865844726562,33.09637451171875,201.73867797851562C33.47528076171875,202.13153076171875,34.03814697265625,202.28646850585938,34.56475830078125,202.14285278320312C35.09130859375,201.99923706054688,35.49761962890625,201.57998657226562,35.62457275390625,201.0491943359375L38.784912109375,193.11981201171875C38.99658203125,192.5240478515625,39.560302734375,192.12600708007812,40.192626953125,192.12600708007812C40.824951171875,192.12600708007812,41.38873291015625,192.5240478515625,41.600341796875,193.11981201171875C44.81805419921875,202.5430908203125,56.65460205078125,226.101318359375,96.5311279296875,243.68377685546875L96.5311279296875,243.68377685546875C97.9676513671875,244.20089721679688,126.46728515625,254.0838623046875,133.419921875,268.7933654785156C133.70068359375,269.3618469238281,134.2799072265625,269.7216491699219,134.91375732421875,269.7216491699219C135.5478515625,269.7216491699219,136.1268310546875,269.3618469238281,136.40771484375,268.7933654785156C143.417724609375,254.0838623046875,171.9173583984375,244.20089721679688,173.29638671875,243.68377685546875L173.29638671875,243.68377685546875C213.23046875,226.101318359375,225.009521484375,202.5430908203125,228.28466796875,193.11981201171875C228.5167236328125,192.56317138671875,229.0606689453125,192.200439453125,229.663818359375,192.200439453125C230.266845703125,192.200439453125,230.810791015625,192.56317138671875,231.0428466796875,193.11981201171875C232.0770263671875,195.64804077148438,233.341064453125,198.86572265625,234.2030029296875,201.0491943359375C234.46142578125,201.53955078125,234.9703369140625,201.846435546875,235.5245361328125,201.846435546875C236.078857421875,201.846435546875,236.5875244140625,201.53955078125,236.84619140625,201.0491943359375C246.03955078125,187.43133544921875,243.5113525390625,162.26434326171875,242.47705078125,155.484130859375ZM134.9713134765625,39.474334716796875C128.62445068359375,39.474334716796875,123.4794921875,34.32926940917969,123.4794921875,27.982528686523438C123.4794921875,21.635772705078125,128.62445068359375,16.490707397460938,134.9713134765625,16.490707397460938C141.31793212890625,16.490707397460938,146.46307373046875,21.635772705078125,146.46307373046875,27.982528686523438C146.46307373046875,34.32926940917969,141.31793212890625,39.474334716796875,134.9713134765625,39.474334716796875Z" style="fill: rgb(255, 255, 255); fill-opacity: 1;"/></g></g><g id="shape-3266ba50-8fe3-802f-8008-34b19ac163e6"><g class="fills" id="fills-3266ba50-8fe3-802f-8008-34b19ac163e6"><path d="M122.89013671875,196.626953125C122.51904296875,197.9090576171875,122.08306884765625,199.17410278320312,121.583251953125,200.41714477539062C118.2183837890625,207.8541259765625,110.784423828125,212.60736083984375,102.621826171875,212.54098510742188C82.39630126953125,212.54098510742188,77.7994384765625,209.09341430664062,56.0799560546875,189.557373046875L52.51751708984375,186.10980224609375C52.0347900390625,185.642578125,51.92327880859375,184.91067504882812,52.24505615234375,184.32095336914062C52.566650390625,183.73126220703125,53.242431640625,183.42868041992188,53.896484375,183.58160400390625L64.2392578125,186.10980224609375C64.8026123046875,186.23764038085938,65.38916015625,186.02923583984375,65.74566650390625,185.57455444335938C66.10198974609375,185.11978149414062,66.16424560546875,184.50033569335938,65.90557861328125,183.98385620117188C57.68408203125,170.03363037109375,44.64605712890625,159.57052612304688,29.2467041015625,154.56475830078125C28.8328857421875,154.42239379882812,28.376953125,154.47622680664062,28.0076904296875,154.71109008789062C27.6385498046875,154.94598388671875,27.396728515625,155.3363037109375,27.3504638671875,155.77145385742188C26.43109130859375,162.55157470703125,23.90289306640625,187.71865844726562,33.09637451171875,201.73867797851562C33.47528076171875,202.13153076171875,34.03814697265625,202.28646850585938,34.56475830078125,202.14285278320312C35.09130859375,201.99923706054688,35.49761962890625,201.57998657226562,35.62457275390625,201.0491943359375L38.784912109375,193.11981201171875C38.99658203125,192.5240478515625,39.560302734375,192.12600708007812,40.192626953125,192.12600708007812C40.824951171875,192.12600708007812,41.38873291015625,192.5240478515625,41.600341796875,193.11981201171875C44.81805419921875,202.5430908203125,56.65460205078125,226.101318359375,96.5311279296875,243.68377685546875L96.5311279296875,243.68377685546875C97.9676513671875,244.20089721679688,126.46728515625,254.0838623046875,133.419921875,268.7933654785156C133.70068359375,269.3618469238281,134.2799072265625,269.7216491699219,134.91375732421875,269.7216491699219C135.5478515625,269.7216491699219,136.1268310546875,269.3618469238281,136.40771484375,268.7933654785156C143.417724609375,254.0838623046875,171.9173583984375,244.20089721679688,173.29638671875,243.68377685546875L173.29638671875,243.68377685546875C213.23046875,226.101318359375,225.009521484375,202.5430908203125,228.28466796875,193.11981201171875C228.5167236328125,192.56317138671875,229.0606689453125,192.200439453125,229.663818359375,192.200439453125C230.266845703125,192.200439453125,230.810791015625,192.56317138671875,231.0428466796875,193.11981201171875C232.0770263671875,195.64804077148438,233.341064453125,198.86572265625,234.2030029296875,201.0491943359375C234.46142578125,201.53955078125,234.9703369140625,201.846435546875,235.5245361328125,201.846435546875C236.078857421875,201.846435546875,236.5875244140625,201.53955078125,236.84619140625,201.0491943359375C246.03955078125,187.43133544921875,243.5113525390625,162.26434326171875,242.47705078125,155.484130859375C242.414794921875,155.04495239257812,242.160400390625,154.6561279296875,241.7830810546875,154.423095703125C241.4056396484375,154.18994140625,240.9442138671875,154.13665771484375,240.5234375,154.27752685546875C225.1798095703125,159.36727905273438,212.2113037109375,169.86459350585938,204.0369873046875,183.81149291992188C203.7783203125,184.32797241210938,203.840576171875,184.94741821289062,204.1968994140625,185.40219116210938C204.5533447265625,185.85687255859375,205.139892578125,186.06527709960938,205.703369140625,185.93743896484375L216.0458984375,183.40924072265625C216.7000732421875,183.25631713867188,217.375732421875,183.55889892578125,217.697509765625,184.14859008789062C218.0191650390625,184.73831176757812,217.9075927734375,185.47021484375,217.425048828125,185.93743896484375L213.74755859375,189.557373046875C192.028076171875,209.09341430664062,187.431396484375,212.54098510742188,167.26318359375,212.54098510742188C159.08837890625,212.60061645507812,151.640869140625,207.8531494140625,148.2442626953125,200.41714477539062C147.749267578125,199.17385864257812,147.3182373046875,197.9088134765625,146.95196533203125,196.626953125L122.89013671875,196.626953125M144.08526611328125,91.34454345703125L143.992431640625,84.7520751953125L174.100830078125,84.7520751953125C176.9871826171875,89.39239501953125,182.5999755859375,91.55691528320312,187.854736328125,90.05609130859375C193.1092529296875,88.55517578125,196.7320556640625,83.75265502929688,196.7320556640625,78.28793334960938C196.7320556640625,72.82321166992188,193.1092529296875,68.02069091796875,187.854736328125,66.519775390625C182.5999755859375,65.01895141601562,176.9871826171875,67.1834716796875,174.100830078125,71.82379150390625L143.93487548828125,71.82379150390625C143.93487548828125,66.077880859375,143.93487548828125,60.332000732421875,143.93487548828125,54.586090087890625C156.936279296875,50.348114013671875,164.9273681640625,37.28700256347656,162.78173828125,23.781723022460938C160.63616943359375,10.276443481445312,148.9906005859375,0.3350067138671875,135.3160400390625,0.3350067138671875C121.6414794921875,0.3350067138671875,109.995849609375,10.276443481445312,107.8502197265625,23.781723022460938C105.70465087890625,37.28700256347656,113.69580078125,50.348114013671875,126.6971435546875,54.586090087890625C126.6971435546875,60.332000732421875,126.6971435546875,66.077880859375,126.6971435546875,71.82379150390625L95.7841796875,71.82379150390625C92.89788818359375,67.1834716796875,87.28509521484375,65.01895141601562,82.030517578125,66.519775390625C76.77593994140625,68.02069091796875,73.15301513671875,72.82321166992188,73.15301513671875,78.28793334960938C73.15301513671875,83.75265502929688,76.77593994140625,88.55517578125,82.030517578125,90.05609130859375C87.28509521484375,91.55691528320312,92.89788818359375,89.39239501953125,95.7841796875,84.7520751953125L125.8353271484375,84.7520751953125L125.7403564453125,91.49732971191406C128.21453857421875,89.31953430175781,131.4542236328125,88,135,88C138.46429443359375,88,141.634765625,89.25798034667969,144.08526611328125,91.34454345703125M134.9713134765625,39.474334716796875C128.62445068359375,39.474334716796875,123.4794921875,34.32926940917969,123.4794921875,27.982528686523438C123.4794921875,21.635772705078125,128.62445068359375,16.490707397460938,134.9713134765625,16.490707397460938C141.31793212890625,16.490707397460938,146.46307373046875,21.635772705078125,146.46307373046875,27.982528686523438C146.46307373046875,34.32926940917969,141.31793212890625,39.474334716796875,134.9713134765625,39.474334716796875" style="fill: rgb(0, 0, 0); fill-opacity: 1;"/></g></g><g id="shape-3266ba50-8fe3-802f-8008-34b19ac163e7"><g class="fills" id="fills-3266ba50-8fe3-802f-8008-34b19ac163e7"><path d="M187.97491455078125,184.78848266601562C187.97491455078125,189.00302124023438,184.5595703125,192.41864013671875,180.3408203125,192.41864013671875L90.659423828125,192.41864013671875C86.44464111328125,192.41836547851562,83.029296875,189.00302124023438,83.029296875,184.78848266601562L83.029296875,184.15408325195312C83.029296875,179.93533325195312,86.44464111328125,176.52001953125,90.659423828125,176.52001953125L180.3408203125,176.52001953125C184.5595703125,176.52001953125,187.97491455078125,179.93533325195312,187.97491455078125,184.15408325195312L187.97491455078125,184.78848266601562L187.97491455078125,184.78848266601562" style="fill: rgb(0, 0, 0); fill-opacity: 1;"/></g></g><g id="shape-3266ba50-8fe3-802f-8008-34b19ac163e8"><g class="fills" id="fills-3266ba50-8fe3-802f-8008-34b19ac163e8"><path d="M203,117.9088134765625C203,112.248046875,198.40631103515625,107.6585693359375,192.74554443359375,107.6585693359375C187.080810546875,107.6585693359375,182.48712158203125,112.248046875,182.48712158203125,117.9088134765625C182.48712158203125,120.6773681640625,183.587158203125,123.18647766113281,185.37115478515625,125.0279541015625C178.396240234375,139.47216796875,165.064208984375,144.514892578125,154.731689453125,139.9501953125C145.5279541015625,135.879638671875,142.1331787109375,124.2451171875,140.98358154296875,115.23097229003906C144.7366943359375,113.25764465332031,147.29534912109375,109.32708740234375,147.29534912109375,104.7911376953125C147.29510498046875,98.27764892578125,142.0177001953125,93,135.5,93C128.98651123046875,93,123.70489501953125,98.27764892578125,123.70489501953125,104.7911376953125C123.70489501953125,109.32708740234375,126.2633056640625,113.25738525390625,130.01666259765625,115.23097229003906C128.8673095703125,124.24539184570312,125.4725341796875,135.87991333007812,116.2685546875,139.9501953125C105.935791015625,144.51516723632812,92.60400390625,139.47216796875,85.62908935546875,125.0279541015625C87.4130859375,123.18647766113281,88.51318359375,120.6773681640625,88.51318359375,117.9088134765625C88.51318359375,112.248046875,83.91943359375,107.6585693359375,78.2586669921875,107.6585693359375C72.59368896484375,107.6585693359375,68,112.248046875,68,117.9088134765625C68,123.12451171875,71.8973388671875,127.42156982421875,76.931884765625,128.07257080078125L88.75177001953125,171.3353271484375L182.24822998046875,171.3353271484375L194.068115234375,128.07257080078125C199.10662841796875,127.42156982421875,203,123.12451171875,203,117.9088134765625L203,117.9088134765625" style="fill: rgb(0, 0, 0); fill-opacity: 1;"/></g></g></g></g></g></g></g></g></svg>